<mxfile host="app.diagrams.net" modified="2024-07-10T09:00:46.954Z" agent="Mozilla/5.0 (Windows NT 10.0; Win64; x64) AppleWebKit/537.36 (KHTML, like Gecko) Chrome/126.0.0.0 Safari/537.36" version="24.6.4" etag="rA0wC59T1z1ZjBKGRAsu" type="github">
  <diagram name="第 1 页" id="AltIr-RR9TnH9yb616H0">
    <mxGraphModel>
      <root>
        <mxCell id="0" />
        <mxCell id="1" parent="0" />
      </root>
    </mxGraphModel>
  </diagram>
</mxfile>
